<?xml version="1.0" standalone="no"?>
<!DOCTYPE svg PUBLIC "-//W3C//DTD SVG 20010904//EN"
 "http://www.w3.org/TR/2001/REC-SVG-20010904/DTD/svg10.dtd">
<svg version="1.0" xmlns="http://www.w3.org/2000/svg"
 width="900.000000pt" height="900.000000pt" viewBox="0 0 900.000000 900.000000"
 preserveAspectRatio="xMidYMid meet">
<metadata>
Created by potrace 1.14, written by Peter Selinger 2001-2017
</metadata>
<g transform="translate(0.000000,900.000000) scale(0.100000,-0.100000)"
fill="#000000" stroke="none">
<path d="M4389 8742 c-5 -14 -119 -20 -138 -8 -10 7 -12 6 -6 -4 6 -10 4 -12
-10 -7 -9 4 -24 2 -31 -4 -9 -8 -14 -8 -14 -1 0 7 -10 8 -30 2 -21 -6 -30 -5
-30 3 0 8 -3 8 -9 -1 -4 -8 -19 -11 -34 -8 -15 3 -27 1 -27 -4 0 -4 -9 -6 -20
-3 -11 3 -28 2 -37 -2 -16 -7 -84 -15 -135 -16 -10 0 -21 -5 -24 -11 -4 -6
-10 -5 -15 3 -7 12 -9 12 -9 0 0 -11 -3 -11 -17 0 -11 10 -14 10 -9 2 5 -9 0
-13 -13 -14 -12 -1 -30 -2 -40 -3 -11 0 -22 -4 -26 -8 -4 -4 -13 -4 -21 -1 -8
3 -14 0 -14 -6 0 -9 -5 -9 -21 0 -17 9 -20 8 -14 -2 6 -8 4 -11 -7 -6 -9 3
-21 0 -28 -6 -10 -9 -11 -9 -5 3 7 12 5 12 -11 -1 -10 -9 -25 -14 -33 -11 -7
2 -17 -2 -22 -9 -7 -11 -9 -11 -9 -1 0 7 -5 10 -10 7 -6 -4 -7 -11 -4 -17 4
-6 -2 -6 -15 1 -16 9 -21 9 -21 0 0 -8 -5 -7 -17 2 -11 10 -14 10 -9 2 6 -12
-5 -18 -26 -14 -5 0 -8 -3 -8 -8 0 -4 -11 -7 -25 -6 -14 2 -25 -1 -25 -6 0 -6
-4 -7 -10 -4 -5 3 -10 0 -10 -7 0 -10 -2 -10 -9 1 -5 8 -10 9 -12 3 -4 -10
-36 -20 -79 -25 -8 -1 -18 -5 -21 -10 -3 -4 -20 -9 -37 -10 -19 -1 -32 -7 -32
-16 0 -10 -3 -11 -14 -2 -10 9 -16 8 -26 -4 -7 -8 -17 -12 -23 -8 -7 4 -8 0
-3 -12 7 -18 6 -18 -14 0 -15 14 -21 15 -18 5 2 -8 -5 -14 -17 -14 -11 0 -24
-6 -28 -14 -7 -10 -12 -11 -23 -1 -12 10 -15 10 -12 -2 2 -8 -3 -13 -9 -12 -7
2 -13 -2 -13 -8 0 -5 -4 -8 -9 -4 -5 3 -17 -2 -25 -11 -11 -10 -16 -11 -16 -3
0 8 -6 7 -18 -4 -10 -10 -24 -17 -30 -17 -7 0 -12 -5 -12 -12 0 -6 -3 -9 -6
-5 -4 3 -23 -2 -44 -13 -21 -11 -40 -16 -44 -13 -3 4 -6 1 -6 -5 0 -6 -13 -13
-30 -17 -16 -4 -30 -11 -30 -16 0 -5 -4 -9 -10 -9 -18 0 -109 -43 -105 -50 2
-3 -6 -7 -18 -7 -12 -1 -23 -7 -25 -13 -2 -5 -7 -8 -12 -5 -4 3 -13 -2 -20
-10 -7 -8 -17 -15 -22 -15 -6 0 -38 -17 -72 -37 -33 -21 -64 -37 -68 -35 -5 1
-8 -2 -8 -7 0 -5 -13 -14 -30 -21 -16 -7 -30 -16 -30 -21 0 -5 -6 -9 -13 -9
-7 0 -23 -9 -34 -19 -12 -11 -24 -17 -27 -14 -3 4 -6 1 -6 -5 0 -7 -7 -12 -15
-12 -8 0 -15 -4 -15 -10 0 -5 -7 -10 -15 -10 -9 0 -18 -7 -21 -15 -4 -8 -9
-13 -13 -10 -4 2 -19 -7 -34 -21 -14 -13 -29 -24 -32 -24 -3 0 -38 -26 -79
-57 -40 -32 -88 -69 -106 -83 -18 -14 -38 -29 -44 -35 -6 -5 -43 -37 -81 -70
-38 -33 -87 -77 -107 -97 -21 -20 -38 -35 -38 -32 0 2 -25 -23 -55 -56 -30
-33 -55 -57 -55 -55 0 3 -15 -11 -33 -32 -17 -20 -51 -57 -74 -81 -24 -24 -43
-46 -43 -49 0 -3 -10 -16 -22 -28 -46 -45 -68 -73 -68 -84 0 -7 -4 -9 -10 -6
-5 3 -10 1 -10 -5 0 -6 -6 -17 -13 -25 -6 -7 -23 -28 -37 -46 -14 -18 -32 -39
-40 -48 -8 -8 -14 -16 -12 -18 1 -2 -2 -9 -8 -16 -47 -55 -58 -72 -54 -79 3
-4 1 -8 -5 -8 -5 0 -20 -17 -32 -37 -13 -21 -26 -40 -29 -43 -4 -3 -20 -27
-36 -53 -16 -27 -36 -59 -44 -72 -38 -59 -94 -161 -92 -167 1 -5 -2 -8 -6 -8
-9 0 -29 -37 -30 -54 0 -5 -4 -12 -9 -15 -11 -8 -73 -133 -73 -148 0 -7 -4
-13 -10 -13 -5 0 -10 -9 -10 -20 0 -11 -4 -20 -10 -20 -5 0 -9 -3 -8 -7 1 -9
-2 -17 -59 -147 -23 -54 -40 -102 -37 -107 3 -5 1 -9 -5 -9 -6 0 -13 -16 -17
-35 -3 -19 -11 -35 -17 -35 -6 0 -8 -2 -5 -5 3 -3 -8 -42 -23 -87 -16 -44 -26
-85 -23 -89 3 -5 1 -9 -4 -9 -9 0 -28 -65 -24 -82 1 -5 -3 -8 -10 -8 -6 0 -9
-3 -6 -6 4 -3 2 -20 -3 -37 -6 -18 -13 -43 -16 -57 -7 -36 -9 -43 -16 -60 -3
-8 -11 -40 -17 -70 -5 -30 -13 -66 -16 -80 -8 -35 -15 -81 -16 -107 -1 -13 -4
-23 -7 -23 -4 0 -6 -10 -7 -22 -2 -44 -11 -95 -19 -108 -6 -9 -4 -11 6 -5 11
7 12 6 3 -6 -6 -8 -12 -21 -12 -29 -1 -24 -11 -125 -12 -125 -1 0 -3 -8 -5
-17 -2 -10 1 -18 6 -18 6 0 7 -6 2 -12 -11 -19 -12 -30 -17 -166 -3 -67 -8
-127 -11 -132 -3 -6 -1 -10 5 -10 6 0 8 -5 4 -12 -11 -17 -12 -48 -3 -48 4 0
4 -13 -1 -30 -5 -19 -5 -30 1 -30 6 0 6 -7 0 -19 -6 -10 -8 -21 -5 -24 5 -4
12 -120 16 -247 1 -8 6 -21 12 -29 8 -11 8 -13 -1 -7 -16 9 -16 1 -3 -25 8
-14 7 -19 -2 -19 -8 0 -9 -3 -3 -8 6 -4 12 -32 14 -62 1 -30 8 -61 13 -67 7
-9 7 -13 -1 -13 -7 0 -9 -5 -5 -12 4 -7 8 -25 9 -41 1 -16 8 -33 16 -38 10 -6
10 -9 2 -9 -13 0 -12 -21 1 -52 5 -10 6 -23 3 -30 -2 -7 0 -23 4 -36 5 -13 11
-37 14 -55 8 -42 25 -118 32 -137 3 -8 7 -26 9 -40 2 -14 4 -31 5 -37 1 -7 6
-13 11 -13 5 0 7 -4 4 -9 -3 -5 1 -28 8 -52 26 -83 41 -134 41 -139 0 -3 3 -9
6 -15 4 -5 12 -34 20 -62 7 -29 16 -53 21 -53 4 0 7 -3 7 -7 -1 -5 0 -10 1
-13 1 -3 3 -13 5 -23 2 -10 7 -26 11 -35 4 -9 8 -20 8 -24 1 -3 4 -10 9 -14 4
-4 7 -16 7 -26 0 -10 7 -21 15 -24 8 -4 13 -10 10 -15 -3 -4 1 -24 9 -44 8
-19 15 -38 15 -40 0 -3 12 -25 26 -50 13 -25 25 -49 25 -53 1 -18 12 -42 20
-42 5 0 6 -7 3 -17 -4 -11 -3 -14 5 -9 7 4 12 1 12 -6 0 -20 24 -68 33 -68 5
0 6 -4 2 -9 -3 -5 0 -15 7 -23 7 -7 14 -20 16 -28 2 -8 9 -18 15 -22 7 -4 8
-8 3 -8 -5 0 -2 -8 6 -17 8 -10 20 -33 28 -50 7 -18 16 -33 19 -33 4 0 13 -16
21 -35 8 -19 17 -35 22 -35 4 0 8 -7 8 -15 0 -8 5 -15 10 -15 6 0 10 -6 10
-14 0 -7 7 -19 15 -26 9 -7 13 -15 11 -17 -5 -5 1 -13 34 -52 8 -10 16 -23 18
-30 1 -7 11 -22 22 -34 11 -11 20 -24 20 -29 0 -7 21 -35 47 -63 7 -8 13 -16
13 -19 0 -7 64 -91 85 -112 8 -9 15 -18 15 -22 0 -4 17 -26 38 -49 20 -23 44
-52 54 -64 30 -38 172 -191 249 -268 66 -65 115 -111 234 -216 13 -12 38 -32
56 -45 18 -14 43 -35 56 -48 13 -13 23 -20 23 -18 0 6 36 -23 66 -52 7 -6 16
-12 21 -12 4 0 22 -14 40 -30 18 -17 39 -30 47 -30 9 0 16 -7 16 -16 0 -8 4
-13 9 -10 4 3 16 -3 26 -14 10 -11 24 -20 32 -20 7 0 13 -4 13 -10 0 -5 6 -10
13 -10 7 0 23 -9 35 -20 12 -11 26 -20 31 -20 6 0 15 -8 20 -17 6 -10 11 -13
11 -6 0 7 12 1 26 -12 15 -14 30 -22 35 -19 5 3 9 0 9 -6 0 -6 5 -8 10 -5 6 3
10 2 10 -3 0 -5 21 -20 48 -33 26 -13 49 -27 52 -31 3 -4 19 -13 35 -20 17 -8
50 -24 75 -38 25 -13 51 -25 59 -26 8 -2 17 -8 21 -15 4 -6 13 -8 19 -5 6 4
11 3 11 -2 0 -9 34 -25 65 -31 6 -1 18 -10 28 -18 9 -9 17 -13 17 -9 0 3 17
-2 39 -13 21 -11 41 -17 45 -14 3 4 6 1 6 -5 0 -7 4 -12 9 -12 5 0 22 -5 38
-12 15 -6 30 -12 33 -13 3 -1 18 -7 33 -13 15 -7 40 -15 55 -18 15 -4 32 -11
38 -15 6 -5 19 -10 30 -12 10 -2 33 -10 49 -16 17 -7 40 -14 52 -14 13 -1 23
-6 23 -11 0 -5 3 -7 6 -4 3 4 21 0 40 -8 19 -8 36 -14 39 -14 3 0 6 0 8 -1 1
0 9 -2 17 -4 8 -2 29 -8 47 -13 17 -6 34 -8 37 -4 3 3 6 0 6 -7 0 -7 5 -9 10
-6 6 4 16 3 23 -2 12 -9 38 -14 89 -17 14 0 24 -4 21 -8 -2 -5 10 -9 26 -9 30
-1 43 -3 59 -9 4 -2 12 -4 17 -5 6 -2 12 -4 15 -5 3 -1 21 -3 40 -5 19 -2 36
-4 38 -5 1 -1 10 -3 20 -4 9 -1 22 -4 27 -7 6 -3 20 -4 33 -3 12 0 22 -3 22
-8 0 -5 9 -4 20 2 15 8 20 8 20 -1 0 -7 10 -9 25 -7 14 3 28 2 30 -3 3 -4 14
-6 25 -4 11 2 22 0 25 -6 4 -5 13 -5 24 1 10 5 21 6 25 3 8 -8 41 -11 146 -15
41 -2 78 -7 82 -13 5 -6 8 -5 8 3 0 10 5 10 20 2 15 -8 20 -8 20 2 0 9 3 9 12
0 7 -7 17 -8 29 -2 10 6 20 6 23 2 7 -11 46 -9 65 2 9 6 12 5 7 -2 -8 -14 56
-11 66 3 5 7 8 6 8 -1 0 -11 79 -12 98 0 7 4 12 2 12 -4 0 -6 5 -8 12 -4 7 5
40 9 73 11 33 1 94 5 135 8 41 4 87 7 103 7 15 0 27 4 27 8 0 5 9 6 21 3 12
-4 25 0 30 8 7 11 9 11 9 1 0 -7 4 -11 8 -8 9 5 56 15 107 21 17 2 44 7 60 10
17 4 39 8 50 9 12 1 25 5 30 8 6 3 18 4 28 3 9 -2 17 0 17 5 0 5 8 7 18 5 9
-1 22 0 27 4 6 3 15 6 20 7 49 8 80 16 145 34 41 12 86 24 100 27 14 2 27 8
28 14 2 5 8 7 12 4 5 -3 25 1 44 9 19 8 37 12 40 8 3 -3 6 1 6 8 0 7 2 11 6 8
3 -3 35 5 72 18 37 14 74 26 83 29 9 2 36 13 60 24 23 12 46 21 51 21 13 0
209 89 218 99 3 3 10 6 15 7 13 0 108 45 115 53 3 3 28 17 55 31 28 13 53 29
57 35 4 5 8 6 8 2 0 -4 20 6 45 23 25 17 45 28 45 25 0 -4 7 1 16 9 8 9 22 16
30 16 8 0 14 5 14 10 0 6 7 10 15 10 8 0 15 5 15 12 0 6 3 9 6 5 3 -3 18 5 32
19 15 13 31 24 36 24 5 0 24 11 42 25 18 14 37 25 43 25 6 0 11 3 11 8 0 4 17
18 38 32 45 30 58 40 81 61 10 9 23 18 28 20 12 5 74 54 112 89 14 14 30 26
34 27 8 3 56 44 99 85 15 15 28 26 28 24 0 -2 46 42 103 97 56 55 101 104 99
109 -1 4 3 8 8 8 10 0 63 54 147 149 18 20 33 42 33 49 0 7 5 10 10 7 6 -3 10
-3 10 2 0 4 12 22 26 38 14 17 35 43 47 59 12 16 30 37 40 47 9 11 14 19 10
19 -4 0 2 7 13 15 10 8 16 15 12 15 -4 0 3 11 15 24 32 34 105 139 109 156 2
8 11 21 21 28 9 7 17 19 17 27 0 7 3 15 8 17 9 4 72 107 72 119 0 5 5 9 11 9
5 0 7 5 4 10 -3 6 -2 10 2 10 8 0 11 4 47 77 11 21 25 41 30 45 6 4 8 8 4 8
-4 0 6 22 22 50 16 28 26 50 22 50 -4 0 -1 4 6 9 7 4 14 17 15 29 0 11 4 19 8
16 6 -4 19 30 18 50 -1 5 3 12 8 15 19 12 50 90 39 95 -7 3 -7 5 2 5 6 1 12 8
12 16 0 8 4 15 8 15 5 0 13 15 19 32 6 18 21 58 33 88 12 30 22 60 23 65 2 6
5 15 9 20 8 14 32 98 30 108 -1 4 2 7 8 7 6 0 9 3 8 8 -1 4 5 27 12 52 8 25
14 50 15 55 0 6 4 15 7 21 4 6 12 31 18 55 13 54 15 59 23 84 6 19 11 44 24
110 9 49 11 60 14 60 1 0 3 9 5 20 1 11 6 31 9 45 4 14 7 35 6 47 0 12 4 25
10 28 6 5 6 12 -3 23 -8 10 -9 13 -1 9 8 -5 12 3 13 25 0 18 1 41 1 50 0 10 4
18 8 18 5 0 7 11 5 25 -1 14 4 32 13 40 8 8 10 15 4 15 -15 0 -14 27 2 33 9 4
8 6 -2 6 -11 1 -11 4 -1 16 10 12 10 15 -1 15 -8 0 -6 5 6 13 11 9 14 16 7 21
-7 4 -8 17 -2 36 6 21 5 30 -3 30 -8 0 -8 3 -2 8 15 10 15 75 1 84 -7 5 -6 8
4 8 13 0 15 26 15 178 0 102 4 183 10 191 7 10 7 13 -1 8 -7 -4 -11 13 -12 49
0 39 3 52 11 47 8 -4 7 -1 -1 9 -16 20 -25 91 -10 82 5 -3 2 8 -7 26 -10 20
-12 29 -4 25 7 -5 10 -4 6 2 -3 5 -9 34 -12 63 -4 30 -9 58 -11 62 -3 4 1 8 8
9 7 0 4 4 -7 9 -11 5 -15 9 -8 9 12 1 12 46 0 58 -4 3 -1 13 6 21 9 13 9 14 0
8 -9 -5 -13 1 -13 18 0 14 -6 26 -12 26 -9 0 -10 3 -2 8 13 9 14 42 1 42 -5 0
-5 6 2 13 7 9 7 17 0 24 -9 9 -15 39 -23 112 -2 14 -8 27 -14 29 -7 2 -12 8
-12 13 0 6 5 7 10 4 12 -7 14 8 3 19 -8 8 -10 14 -12 47 -1 12 -5 17 -12 13
-8 -5 -9 -2 -1 11 6 12 6 26 1 37 -5 10 -13 26 -18 37 -6 12 -6 22 2 30 8 8 8
11 -2 11 -7 0 -9 5 -6 10 3 6 2 10 -3 10 -6 0 -8 9 -5 20 3 11 0 20 -6 20 -6
0 -11 14 -11 30 0 17 -4 30 -8 30 -5 0 -9 6 -10 13 -2 22 -7 42 -16 55 -4 7
-5 16 -2 19 3 4 -2 15 -11 26 -10 11 -12 17 -5 13 6 -4 12 -2 12 3 0 6 -4 11
-10 11 -5 0 -10 9 -10 20 0 11 -4 20 -9 20 -6 0 -8 9 -6 20 2 11 -3 26 -11 34
-8 8 -14 19 -14 25 0 22 -25 91 -33 91 -5 0 -6 4 -2 9 3 5 -2 16 -10 25 -11
10 -12 17 -4 22 8 5 6 10 -5 16 -9 5 -14 13 -11 19 4 5 1 9 -4 9 -6 0 -11 9
-11 20 0 11 -4 20 -10 20 -5 0 -6 8 -3 17 5 13 3 15 -13 9 -14 -5 -16 -4 -8 4
13 13 -4 57 -35 94 -12 15 -12 17 -2 11 9 -5 7 2 -5 21 -12 16 -27 44 -35 62
-8 17 -18 32 -22 32 -5 0 -6 4 -3 9 3 5 -3 19 -13 32 -10 13 -19 26 -19 29 -2
18 -18 48 -34 62 -11 9 -19 19 -18 23 3 11 -25 65 -33 65 -5 0 -6 4 -2 9 3 6
0 13 -7 18 -20 12 -39 53 -32 65 4 6 3 8 -3 5 -5 -3 -17 7 -27 24 -9 16 -22
29 -27 29 -6 0 -8 4 -4 9 3 5 -2 16 -10 24 -8 9 -15 20 -15 26 0 6 -5 11 -11
11 -5 0 -7 5 -4 10 3 6 -2 10 -11 10 -10 0 -15 3 -11 6 3 4 -5 21 -19 40 -14
18 -23 38 -19 43 4 7 -1 8 -12 4 -10 -3 -15 -3 -11 1 4 5 -4 18 -17 31 -14 12
-22 25 -18 28 3 4 1 7 -6 7 -7 0 -9 5 -6 10 3 6 -1 10 -10 10 -9 0 -13 5 -10
10 3 6 0 10 -7 10 -9 0 -9 3 2 10 12 8 11 10 -7 10 -14 0 -23 6 -23 15 0 9 -7
18 -16 22 -9 3 -13 12 -9 21 3 9 3 14 0 10 -7 -7 -55 39 -55 53 0 6 -4 7 -10
4 -5 -3 -10 1 -10 9 0 9 -4 16 -10 16 -5 0 -10 7 -10 15 0 8 -6 15 -14 15 -8
0 -18 9 -21 20 -3 11 -13 20 -22 20 -10 0 -13 6 -9 16 3 8 2 13 -2 11 -9 -6
-112 100 -104 108 3 3 -2 5 -11 5 -9 0 -17 6 -17 14 0 8 -9 18 -20 21 -11 4
-18 11 -15 16 4 5 1 9 -5 9 -16 0 -80 62 -80 77 0 7 -7 10 -17 6 -13 -5 -15
-2 -10 11 4 9 3 15 -1 12 -10 -6 -66 43 -75 65 -4 12 -6 12 -6 0 -1 -15 -41
25 -41 41 0 4 -6 7 -12 6 -7 -2 -12 2 -11 8 1 7 -5 11 -15 10 -9 0 -16 5 -14
12 1 8 -2 11 -8 7 -5 -3 -10 -1 -10 6 0 7 -3 10 -6 6 -3 -3 -18 5 -33 19 -14
13 -34 27 -43 30 -10 3 -18 12 -18 20 0 8 -4 12 -10 9 -5 -3 -10 -1 -10 4 0 6
-7 11 -16 11 -10 0 -14 6 -11 14 4 10 1 13 -9 9 -7 -3 -14 0 -14 6 0 6 -5 11
-11 11 -6 0 -25 11 -43 25 -18 14 -36 22 -41 17 -5 -4 -6 -2 -3 3 3 6 0 16 -8
23 -10 9 -14 9 -14 1 0 -6 -13 3 -29 20 -19 21 -31 27 -34 19 -3 -7 -6 -2 -6
12 -1 15 -4 20 -9 13 -4 -7 -13 -9 -21 -4 -7 5 -11 13 -7 19 4 6 -2 8 -14 5
-12 -3 -20 0 -20 6 0 7 -5 9 -12 5 -7 -5 -9 -2 -5 8 4 12 1 14 -14 11 -10 -3
-19 0 -19 6 0 6 -9 11 -20 11 -11 0 -20 4 -20 9 0 5 -17 17 -37 26 -21 10 -41
24 -46 31 -4 7 -13 11 -21 8 -7 -3 -19 2 -26 10 -7 9 -16 13 -21 10 -5 -3 -9
0 -9 6 0 6 -4 9 -9 6 -5 -4 -11 -3 -13 2 -3 9 -93 52 -108 52 -5 0 -10 8 -11
18 0 9 -3 12 -5 6 -4 -9 -13 -8 -35 3 -16 8 -26 19 -23 25 4 7 2 8 -4 4 -6 -4
-50 10 -98 30 -47 21 -93 37 -101 37 -7 0 -12 6 -9 12 3 8 -4 10 -19 7 -12 -2
-26 1 -29 7 -4 6 -18 11 -32 11 -13 0 -24 5 -24 11 0 5 -4 7 -10 4 -5 -3 -10
-2 -10 4 0 5 -9 8 -20 6 -11 -2 -20 0 -20 6 0 5 -13 9 -30 9 -16 0 -30 5 -30
11 0 6 -6 9 -14 6 -7 -3 -18 -1 -23 4 -10 10 -45 20 -75 22 -10 1 -18 5 -18
10 0 4 -4 6 -9 2 -5 -3 -12 -1 -16 5 -4 6 -11 8 -16 5 -5 -4 -9 -1 -9 6 0 9
-3 9 -14 0 -10 -9 -15 -8 -20 4 -3 8 -10 15 -16 15 -6 0 -8 -6 -4 -12 6 -10 4
-10 -8 0 -9 7 -20 12 -24 11 -5 -1 -20 2 -32 6 -18 6 -20 10 -10 16 9 6 9 9 1
9 -6 0 -15 -5 -18 -10 -4 -7 -12 -7 -25 0 -10 5 -28 10 -40 10 -14 0 -19 4
-14 13 5 7 1 7 -10 -2 -10 -9 -20 -11 -24 -5 -9 11 -28 17 -64 17 -16 0 -28 4
-28 7 0 4 -11 6 -25 4 -14 -1 -32 4 -40 13 -8 8 -15 10 -15 4 0 -12 -27 -10
-49 3 -11 7 -12 6 -6 -5 8 -12 6 -12 -8 0 -9 7 -37 14 -62 15 -25 0 -45 3 -45
6 0 3 -12 6 -27 6 -71 2 -119 8 -131 17 -10 8 -16 7 -22 -2 -6 -10 -9 -10 -15
-1 -6 9 -10 9 -16 -1 -6 -10 -9 -10 -9 -2 0 12 -30 10 -52 -3 -7 -5 -8 -3 -3
5 5 10 -1 12 -26 8 -19 -2 -43 -1 -54 3 -11 4 -26 3 -34 -4 -12 -9 -13 -7 -8
9 7 20 7 20 -8 1 -8 -11 -15 -14 -15 -7 0 7 -5 9 -11 5 -6 -3 -15 0 -20 7 -7
11 -9 11 -9 1 0 -16 -57 -14 -79 2 -11 8 -13 8 -8 -1 6 -9 -2 -11 -27 -9 -20
1 -38 -2 -40 -8 -2 -6 -5 -5 -5 2 -1 7 -6 10 -12 6 -6 -3 -15 -1 -19 6 -5 8
-9 9 -11 2z m3506 -1782 c-3 -5 -12 -10 -18 -10 -7 0 -6 4 3 10 19 12 23 12
15 0z"/>
</g>
</svg>
